<?xml version="1.0" standalone="no"?>
<!DOCTYPE svg PUBLIC "-//W3C//DTD SVG 20010904//EN"
 "http://www.w3.org/TR/2001/REC-SVG-20010904/DTD/svg10.dtd">
<svg version="1.0" xmlns="http://www.w3.org/2000/svg"
 width="303.000000pt" height="374.000000pt" viewBox="0 0 303.000000 374.000000"
 preserveAspectRatio="xMidYMid meet">
<metadata>
Created by potrace 1.11, written by Peter Selinger 2001-2013
</metadata>
<g transform="translate(0.000000,374.000000) scale(0.100000,-0.100000)"
fill="#D6710E" stroke="none">
<path d="M1459 3667 c-99 -129 -117 -147 -362 -338 -18 -14 -18 -17 -5 -45 35
-67 34 -71 -24 -100 -242 -122 -436 -359 -504 -614 -39 -143 -36 -327 7 -466
73 -239 265 -468 479 -570 44 -22 80 -42 80 -46 0 -4 -15 -40 -34 -82 l-34
-74 81 -37 c45 -21 119 -64 165 -97 l82 -59 0 -116 c0 -104 -2 -115 -17 -109
-9 4 -71 39 -137 78 -349 205 -635 467 -768 703 -155 274 -220 666 -144 868
44 117 74 163 206 311 72 82 129 150 127 152 -7 8 -133 -47 -201 -88 -82 -49
-221 -178 -282 -263 -66 -94 -120 -214 -149 -338 -25 -102 -27 -125 -23 -262
6 -175 29 -286 102 -482 77 -207 125 -290 300 -521 88 -117 175 -236 193 -265
37 -60 70 -151 79 -219 4 -27 9 -48 13 -48 3 0 89 74 191 165 102 90 192 164
200 164 23 1 125 -44 185 -80 l54 -32 -97 -42 c-122 -52 -167 -81 -238 -151
-69 -70 -93 -120 -94 -197 0 -54 3 -62 34 -93 28 -28 41 -34 77 -34 57 0 121
38 144 87 17 35 17 41 2 99 -10 34 -17 65 -17 67 0 9 123 74 160 85 19 6 52
13 73 17 l37 6 0 -144 c0 -139 -1 -144 -24 -166 -81 -76 -71 -186 22 -257 51
-40 138 -45 206 -13 59 27 106 94 106 149 0 34 -43 118 -69 134 -13 8 -16 296
-3 296 36 -1 132 -34 188 -64 38 -21 70 -39 72 -41 2 -1 -5 -33 -15 -69 -17
-66 -17 -68 2 -104 38 -69 148 -105 204 -66 27 19 51 71 51 112 0 65 -32 125
-104 197 -71 70 -150 119 -274 170 l-55 22 60 35 c32 19 84 43 114 53 30 10
59 20 65 22 6 2 96 -70 200 -161 104 -91 192 -166 195 -166 3 0 9 27 12 60 9
102 64 201 232 420 83 108 163 212 178 233 44 58 141 269 186 402 94 280 104
539 31 769 -81 252 -299 486 -540 581 -35 14 -66 23 -68 20 -6 -6 53 -80 160
-199 156 -173 192 -265 193 -486 0 -159 -13 -240 -67 -408 -96 -302 -316 -566
-698 -834 -70 -49 -308 -188 -322 -188 -4 0 -8 51 -8 113 l0 112 83 59 c45 32
121 77 168 100 l86 42 -38 76 -38 76 52 21 c140 59 314 203 404 336 102 151
150 289 160 460 14 261 -85 502 -288 702 -80 79 -211 168 -284 195 l-33 11 23
53 23 52 -61 43 c-139 98 -228 185 -339 330 l-35 47 -54 -71z m-230 -783 c64
-227 101 -454 101 -614 0 -90 -22 -262 -45 -351 -13 -54 -73 -237 -81 -247 -4
-7 -91 42 -163 92 -135 93 -245 251 -287 416 -24 92 -21 253 5 353 50 191 193
371 370 466 31 16 57 28 58 27 2 -1 20 -65 42 -142z m695 109 c89 -47 234
-189 289 -283 52 -90 96 -251 97 -353 0 -70 -27 -181 -64 -262 -35 -75 -130
-207 -193 -266 -42 -41 -212 -169 -223 -169 -8 0 -46 133 -97 335 -26 102 -28
124 -27 295 1 140 6 213 22 299 26 146 103 441 115 441 5 0 41 -17 81 -37z"/>
</g>
</svg>
